<?xml version="1.0" encoding="UTF-8"?>
<svg width="240px" height="42px" viewBox="0 0 240 42" version="1.1" xmlns="http://www.w3.org/2000/svg" xmlns:xlink="http://www.w3.org/1999/xlink">
    <!-- Generator: Sketch 42 (36781) - http://www.bohemiancoding.com/sketch -->
    <title>Group 3</title>
    <desc>Created with Sketch.</desc>
    <defs>
        <path d="M28.9724471,11.2043204 C28.7423295,14.7418375 26.8929606,17.5939106 23.4242919,19.760605 C22.9846773,20.035209 22.5190525,20.298804 22.0274172,20.5513901 C23.6016319,21.6554539 24.7776452,23.0214784 25.5554924,24.6495047 C26.3333396,26.277531 26.6574378,28.0552342 26.5277966,29.9826676 C26.3240747,33.650405 24.8517431,36.5882934 22.1107576,38.796421 C19.369772,41.0045486 15.9806313,42.0711705 11.9432337,41.9963187 C8.25771942,41.9588928 5.29916625,40.8922709 3.06748548,38.796421 C0.835804699,36.7005711 -0.178159532,33.9310966 0.0255623646,30.4879146 C0.284844779,25.9593817 2.92392976,22.534964 7.94289649,20.2145587 C5.22043114,18.0251441 3.95181836,15.1714626 4.13702009,11.6534288 C4.26666129,9.33302353 4.94263745,7.27463037 6.16496883,5.47818758 C7.38730021,3.68174478 9.03094085,2.30636389 11.0959401,1.35200366 C13.1609393,0.397643422 15.4157365,-0.0514605409 17.8603992,0.00467829652 C21.3607118,0.0795300797 24.138696,1.13211749 26.1944352,3.16247211 C28.2501743,5.19282673 29.176169,7.87341601 28.9724471,11.2043204 Z M18.8049233,29.421282 C19.0086452,27.8119687 18.7215868,26.4740131 17.9437396,25.4073752 C17.1658924,24.3407373 16.0176589,23.7887137 14.4990047,23.7512878 C12.8136691,23.7138619 11.3644873,24.2658855 10.151416,25.4073752 C8.93834471,26.5488649 8.21143885,28.0458781 7.97067661,29.8984597 C7.76695471,31.5077731 8.04938311,32.8316941 8.81797026,33.8702626 C9.58655742,34.9088311 10.7486808,35.4468202 12.3043753,35.4842461 C14.0082312,35.521672 15.4574129,34.9790047 16.651964,33.856228 C17.8465151,32.7334512 18.5641611,31.2551507 18.8049233,29.421282 Z M21.055113,11.5972903 C21.2217946,10.0628287 20.9810359,8.8418273 20.3328299,7.93424943 C19.6846239,7.02667156 18.7215893,6.55417677 17.4436974,6.51675087 C15.9806038,6.47932498 14.7397709,6.97053244 13.7211614,7.99038799 C12.7025519,9.01024353 12.0913954,10.3622336 11.8876735,12.0463987 C11.7209919,13.5621473 11.9478606,14.8018614 12.5682864,15.7655781 C13.1887122,16.7292948 14.1563767,17.2298586 15.4713089,17.2672845 C15.8457044,17.2769843 16.2064145,17.2499183 16.5534397,17.1860863 C17.1507564,17.0762154 17.7075291,16.857418 18.2237611,16.5296925 C18.5648172,16.313176 18.8881781,16.0491149 19.193845,15.7375088 C20.2309746,14.6802274 20.8513911,13.3001683 21.055113,11.5972903 Z" id="path-1"></path>
    </defs>
    <g id="Page-1" stroke="none" stroke-width="1" fill="none" fill-rule="evenodd">
        <g id="Desktop-HD" transform="translate(-130.000000, -224.000000)">
            <g id="Group-3" transform="translate(130.000000, 224.000000)">
                <path d="M42.9373203,10.8299916 L41.8562913,16.890264 L45.9964024,16.890264 L45.1453796,21.7202555 L41.0052685,21.7202555 L38.8892117,34.0686302 C38.7972088,34.8432553 38.8585431,35.4356069 39.0732166,35.8457025 C39.2878901,36.2557982 39.8092323,36.4760315 40.6372586,36.5064089 C40.8825998,36.5215977 41.5419442,36.4836264 42.6153117,36.392494 L42.1552993,41.4275324 C41.0052627,41.8072506 39.7632418,41.9819184 38.4291994,41.9515409 C36.2977982,41.9211635 34.7107715,41.2604637 33.6680716,39.9694217 C32.6253717,38.6783798 32.1960312,36.9317022 32.380037,34.7293366 L34.5190944,21.7202555 L31,21.7202555 L31.8510228,16.890264 L35.3701173,16.890264 L36.4281457,10.8299916 L42.9373203,10.8299916 Z M62.487845,23.0644513 C61.5984833,22.912564 60.8701377,22.8366215 60.3027863,22.8366215 C57.9873793,22.7758666 56.1550151,23.6340169 54.8056388,25.4110981 L51.9305617,41.5414473 L45.4443876,41.5414473 L49.7685036,16.890264 L55.8636672,16.867481 L55.2656512,19.8748342 C56.8297009,17.5509587 58.7617335,16.3890384 61.0618067,16.3890384 C61.7058272,16.3890384 62.4571732,16.4953579 63.3158672,16.7080001 L62.487845,23.0644513 Z M74.1721585,41.9971069 C71.9947559,41.9819181 70.0665567,41.4541177 68.3875033,40.4136898 C66.7084498,39.3732619 65.4549287,37.9455428 64.6269024,36.1304898 C63.798876,34.3154367 63.4768706,32.3143517 63.6608764,30.1271748 L63.7298783,29.2158556 C63.9598856,26.8160365 64.6652308,24.6137039 65.8459351,22.6087917 C67.0266393,20.6038795 68.5446649,19.0584496 70.4000573,17.9724555 C72.2554497,16.8864614 74.3101509,16.3738495 76.5642227,16.4346044 C79.7689914,16.4953593 82.1955322,17.6610767 83.843918,19.9317917 C85.4923039,22.2025066 86.1171477,25.0769304 85.7184683,28.5551492 L85.3504585,31.3574557 L70.1010493,31.3574557 C70.039714,32.9522722 70.4307206,34.2281062 71.2740807,35.1849961 C72.1174409,36.141886 73.2674603,36.6355123 74.7241733,36.6658898 C77.0855818,36.7266447 79.1556167,35.8229289 80.93434,33.9547153 L83.9014196,37.5999919 C82.9660565,38.997355 81.6167004,40.0871299 79.853311,40.8693494 C78.0899215,41.6515689 76.1962229,42.0274843 74.1721585,41.9971069 Z M76.2422141,21.7430385 C75.046176,21.7126611 73.9843248,22.0847793 73.0566286,22.8594045 C72.1289324,23.6340296 71.297085,24.978212 70.5610616,26.8919918 L79.4853011,26.8919918 L79.6233048,26.2996343 C79.7153077,25.6920852 79.7229745,25.1149221 79.6463054,24.5681279 C79.4929672,23.6871816 79.1172942,22.999902 78.5192752,22.5062683 C77.9212561,22.0126346 77.1622433,21.7582272 76.2422141,21.7430385 Z M101.680897,41.5414473 C101.481557,40.9187094 101.397222,40.1744729 101.42789,39.3087153 C99.5571637,41.1617402 97.4411281,42.0578618 95.0797196,41.9971069 C92.9023169,41.9667294 91.0967865,41.2642612 89.6630742,39.8896813 C88.2293619,38.5151014 87.5585173,36.8177864 87.6505202,34.7976855 C87.7578569,32.1092805 88.8963761,30.0474415 91.0661118,28.6121067 C93.2358476,27.1767718 96.1453966,26.4591152 99.7948461,26.4591152 L102.830928,26.5046811 L103.152936,25.0237875 C103.244939,24.5225594 103.26794,24.0441217 103.221938,23.5884598 C103.145269,22.8745896 102.873098,22.3164122 102.405416,21.9139109 C101.937735,21.5114095 101.320558,21.3025677 100.553866,21.2873789 C99.5418342,21.2570015 98.6831531,21.5038146 97.9777973,22.0278257 C97.2724415,22.5518369 96.8201006,23.3074648 96.6207609,24.2947322 L90.1115862,24.3175151 C90.218923,21.9632622 91.3114414,20.0533082 93.3891742,18.5875959 C95.466907,17.1218836 98.0314502,16.4042269 101.082881,16.4346044 C103.904304,16.4953593 106.112341,17.3269297 107.707058,18.9293406 C109.301776,20.5317515 109.968787,22.5935905 109.708112,25.1149194 L107.799061,36.9165025 L107.684058,38.3746132 C107.65339,39.4530129 107.783726,40.364323 108.075068,41.1085707 L108.052068,41.5414473 L101.680897,41.5414473 Z M96.6897628,37.0076345 C98.560489,37.0683894 100.193516,36.2633988 101.588894,34.5926387 L102.393916,30.3322216 L100.139855,30.3094386 C97.7477792,30.3701935 96.0227501,31.0916473 94.9647165,32.4738216 C94.5813709,32.9750497 94.3437003,33.590184 94.2516973,34.3192429 C94.1290268,35.1394343 94.3015297,35.7887427 94.7692112,36.2671876 C95.2368928,36.7456326 95.8770702,36.9924457 96.6897628,37.0076345 Z M122.358452,16.867481 L121.829437,19.6697874 C123.838168,17.452233 126.268542,16.3738495 129.120633,16.4346044 C130.654015,16.4649819 131.926703,16.8143174 132.938735,17.4826214 C133.950768,18.1509255 134.633113,19.0546413 134.98579,20.1937959 C137.178527,17.6269008 139.75457,16.3738495 142.713998,16.4346044 C144.998737,16.4801706 146.719933,17.2547841 147.877636,18.7584683 C149.03534,20.2621524 149.522181,22.434108 149.338176,25.2744003 L149.292174,25.8439747 L146.647103,41.5414473 L140.137929,41.5414473 L142.783,25.7984088 C142.844335,25.2364258 142.867335,24.7124225 142.852002,24.2263832 C142.744665,22.6315667 141.824649,21.8113877 140.091927,21.7658215 C138.313204,21.7658215 136.787512,22.7075085 135.514805,24.5909109 L135.445803,25.1149194 L132.547725,41.5414473 L126.061551,41.5414473 L128.706622,25.8439747 C128.767957,25.2819918 128.790958,24.7579885 128.775624,24.2719492 C128.668287,22.6619439 127.755938,21.8341707 126.03855,21.7886045 C124.397831,21.7430383 122.91814,22.5100576 121.599431,24.0896854 L118.494348,41.5414473 L112.008174,41.5414473 L116.309289,16.890264 L122.358452,16.867481 Z M173.281818,11.6046128 C171.963109,11.4223481 170.83609,11.3312171 169.900727,11.3312171 C168.474682,11.3312171 167.305496,11.6577699 166.393133,12.3108852 C165.480771,12.9640005 164.909595,13.8904991 164.679587,15.0904086 L164.380579,16.890264 L169.187708,16.890264 L168.336685,21.7202555 L163.552557,21.7202555 L160.079464,41.5414473 L153.547289,41.5414473 L157.020382,21.7202555 L153.432285,21.7202555 L154.283308,16.890264 L157.871405,16.867481 L158.147412,14.7486639 C158.546091,12.0754477 159.680777,9.96044897 161.551503,8.40360429 C163.42223,6.8467596 165.860271,6.04556619 168.8657,6 L169.25671,6 L173.235817,6.15948085 L180.389009,6.77462129 L174.47785,41.5414473 L167.968675,41.5414473 L173.281818,11.6046128 Z M194.258381,16.4346044 C196.451117,16.4649819 198.340983,17.0231593 199.928033,18.1091534 C201.515084,19.1951475 202.680437,20.6912148 203.424127,22.5974002 C204.167817,24.5035857 204.432322,26.6185844 204.217648,28.9424599 C203.86497,32.8611519 202.48878,36.0317514 200.089037,38.4543536 C197.689294,40.8769558 194.726078,42.0578618 191.199299,41.9971069 C189.03723,41.9667294 187.166532,41.4161463 185.587148,40.3453409 C184.007765,39.2745355 182.842412,37.7898596 182.091054,35.8912685 C181.339697,33.9926774 181.071359,31.8966643 181.286033,29.6031663 C181.684712,25.532587 183.080069,22.2974363 185.472145,19.8976172 C187.864221,17.4977981 190.792937,16.343472 194.258381,16.4346044 Z M187.703205,31.9498131 C187.733873,33.4079311 188.078879,34.55846 188.738233,35.4014344 C189.397587,36.2444089 190.325269,36.6810783 191.521308,36.7114557 C193.514704,36.7722106 195.078731,35.8646977 196.213433,33.9888897 C197.348136,32.1130818 197.877145,29.6487475 197.800476,26.595813 C197.739141,25.1376951 197.382635,23.9719777 196.730947,23.0986258 C196.07926,22.2252739 195.147744,21.773416 193.936372,21.7430385 C192.004311,21.6822836 190.459451,22.5822023 189.301748,24.4428215 C188.144044,26.3034408 187.611202,28.8057463 187.703205,31.9498131 Z M227.625668,32.5649536 L233.536827,16.890264 L240,16.890264 L229.534719,41.5414473 L224.106574,41.5414473 L222.266524,26.1173705 L214.998329,41.5414473 L209.570183,41.5414473 L207.730134,16.890264 L213.802297,16.890264 L214.193307,32.4054727 L221.300498,16.890264 L225.992624,16.890264 L227.625668,32.5649536 Z" id="treamﬂow" fill="#575757"></path>
                <g id="Group-2">
                    <g id="Path-2">
                        <mask id="mask-2" fill="white">
                            <use xlink:href="#path-1"></use>
                        </mask>
                        <use id="Mask" fill="#00BEFF" xlink:href="#path-1"></use>
                        <path d="M14.4107156,17.1160677 C14.5381512,17.1551916 15.3149691,17.3682249 15.5823335,17.4463605 C16.1880957,17.623391 16.7678281,17.814842 17.3727893,18.0459635 C19.0258189,18.6774925 20.6047994,19.5081395 22.082323,20.6042288 C22.541438,20.9448196 22.9853231,21.3076748 23.4128252,21.6938201 L25.4940788,19.3837714 C24.991579,18.9298838 24.4703935,18.5038392 23.9320302,18.1044587 C22.2106649,16.8274773 20.3837212,15.8663855 18.4804481,15.1392525 C17.7913997,14.8760061 17.1340167,14.6589117 16.4528962,14.4598582 C16.1429604,14.3692813 15.3944181,14.1640024 15.3215668,14.1416363 L14.4107156,17.1160677 Z" fill="#151515" fill-rule="nonzero" mask="url(#mask-2)"></path>
                        <path d="M15.865149,23.9635034 C14.8784175,23.765752 13.7957055,23.4550075 12.5125336,22.915407 C10.598701,22.1106006 8.76139924,20.9860264 7.09801292,19.4835571 L5.01675934,21.7936058 C6.95400102,23.5434375 9.08830985,24.8498035 11.3093849,25.7838117 C12.8041932,26.4124097 14.0798264,26.7785238 15.2553344,27.014108 L15.865149,23.9635034 Z" fill="#151515" fill-rule="nonzero" mask="url(#mask-2)"></path>
                    </g>
                </g>
            </g>
        </g>
    </g>
</svg>